<svg xmlns="http://www.w3.org/2000/svg">
  <symbol id="d4" viewBox="0 0 48 48">
    <path d="M24 5 43 40H5Z" fill="currentColor" fill-opacity=".1" stroke="currentColor" stroke-width="2" stroke-linejoin="round"/>
  </symbol>
  <symbol id="d6" viewBox="0 0 48 48">
    <path d="m24 4 18 10v20L24 44 6 34V14Z" fill="currentColor" fill-opacity=".1" stroke="currentColor" stroke-width="2" stroke-linejoin="round"/>
    <path d="m6 14 18 10 18-10M24 24v20" fill="none" stroke="currentColor" stroke-width="1.5" stroke-linejoin="round"/>
  </symbol>
  <symbol id="d8" viewBox="0 0 48 48">
    <path d="m24 3 20 20-20 22L4 23Z" fill="currentColor" fill-opacity=".1" stroke="currentColor" stroke-width="2" stroke-linejoin="round"/>
    <path d="M4 23h40M24 3 13 23l11 22 11-22Z" fill="none" stroke="currentColor" stroke-width="1.4" stroke-linejoin="round"/>
  </symbol>
  <symbol id="d10" viewBox="0 0 48 48">
    <path d="m24 3 20 19-20 23L4 22Z" fill="currentColor" fill-opacity=".1" stroke="currentColor" stroke-width="2" stroke-linejoin="round"/>
    <path d="m24 3 8 17-8 25-8-25ZM4 22l12-2h16l12 2" fill="none" stroke="currentColor" stroke-width="1.4" stroke-linejoin="round"/>
  </symbol>
  <symbol id="d12" viewBox="0 0 48 48">
    <path d="m24 3 12 4 8 10v14l-8 10-12 4-12-4-8-10V17l8-10Z" fill="currentColor" fill-opacity=".1" stroke="currentColor" stroke-width="2" stroke-linejoin="round"/>
    <path d="m24 10 9 7-3 11H18l-3-11ZM24 3v7M12 7l3 10L4 17m40 0-11 0 3-10M4 31l14-3-6 13m32-10-14-3 6 13M24 45l-6-17m6 17 6-17" fill="none" stroke="currentColor" stroke-width="1.25" stroke-linejoin="round"/>
  </symbol>
</svg>