<svg xmlns="http://www.w3.org/2000/svg">
  <symbol id="d4" viewBox="0 0 48 48">
    <path d="M24 5 43 40H5Z" fill="currentColor" fill-opacity=".1" stroke="currentColor" stroke-width="2" stroke-linejoin="round"/>
  </symbol>
  <symbol id="d6" viewBox="0 0 48 48">
    <path d="m24 4 18 10v20L24 44 6 34V14Z" fill="currentColor" fill-opacity=".1" stroke="currentColor" stroke-width="2" stroke-linejoin="round"/>
    <path d="m6 14 18 10 18-10M24 24v20" fill="none" stroke="currentColor" stroke-width="1.5" stroke-linejoin="round"/>
  </symbol>
  <symbol id="d8" viewBox="0 0 48 48">
    <path d="m24 3 20 20-20 22L4 23Z" fill="currentColor" fill-opacity=".1" stroke="currentColor" stroke-width="2" stroke-linejoin="round"/>
    <path d="M4 23h40M24 3 13 23l11 22 11-22Z" fill="none" stroke="currentColor" stroke-width="1.4" stroke-linejoin="round"/>
  </symbol>
  <symbol id="d10" viewBox="0 0 48 48">
    <path d="m24 3 20 19-20 23L4 22Z" fill="currentColor" fill-opacity=".1" stroke="currentColor" stroke-width="2" stroke-linejoin="round"/>
    <path d="m24 3 8 17-8 25-8-25ZM4 22l12-2h16l12 2" fill="none" stroke="currentColor" stroke-width="1.4" stroke-linejoin="round"/>
  </symbol>
  <symbol id="d12" viewBox="0 0 48 48">
    <path d="m24 3 17 10 2 20-19 12L5 33l2-20Z" fill="currentColor" fill-opacity=".08" stroke="currentColor" stroke-width="2.4" stroke-linejoin="round"/>
    <path d="m24 7 11 7-4 13H17l-4-13Z" fill="currentColor" fill-opacity=".24" stroke="currentColor" stroke-width="1.4" stroke-linejoin="round"/>
  </symbol>
</svg>
